<svg id="Layer_1" data-name="Layer 1" xmlns="http://www.w3.org/2000/svg" viewBox="0 0 28.27 22"><title>fav-icon-black</title><path d="M28.82,24.21a10.13,10.13,0,0,1-7-2.84l-.73-.73a8.13,8.13,0,0,0,5.12-7.45A8.23,8.23,0,0,0,18,5H6.23a.15.15,0,0,0-.15.15h0v2.5a.15.15,0,0,0,.15.15H7.76A.15.15,0,0,1,7.91,8h0V12a.17.17,0,0,0,.15.16h2.51a.14.14,0,0,0,.14-.14V8a.15.15,0,0,1,.15-.15H18a5.4,5.4,0,0,1,5.4,5.34,5.34,5.34,0,0,1-4.6,5.23l-1.55-1.55h.35a3.7,3.7,0,0,0,.17-7.4h-5a.14.14,0,0,0-.14.14v2.51a.15.15,0,0,0,.14.15h4.9a.92.92,0,0,1,.92.78.9.9,0,0,1-.77,1H6.3a.15.15,0,0,1-.15-.14h0V9.55A.15.15,0,0,0,6,9.4H2.05a.15.15,0,0,0-.14.15v2.51a.14.14,0,0,0,.14.14H3.19a.15.15,0,0,1,.14.15h0v6.18a.14.14,0,0,1-.14.14H2.05a.15.15,0,0,0-.14.15h0v2.51a.15.15,0,0,0,.14.15h2.7a1.4,1.4,0,0,0,1.4-1.4h0V17a.15.15,0,0,1,.15-.14h7l1.6,1.6H8.07a.15.15,0,0,0-.15.14h0V23.9a.15.15,0,0,1-.14.15H6.34a.15.15,0,0,0-.15.15h0v2.51a.15.15,0,0,0,.15.14H9.16a1.35,1.35,0,0,0,.66-.09,1.47,1.47,0,0,0,.89-1.39V21.2h7l2.08,2.08A12.65,12.65,0,0,0,28.72,27a1.45,1.45,0,0,0,1.46-1.31,1.41,1.41,0,0,0-1.31-1.49Z" transform="translate(-1.91 -5)"/></svg>