<?xml version="1.0" encoding="utf-8"?>
<!-- Generator: Adobe Illustrator 22.0.0, SVG Export Plug-In . SVG Version: 6.00 Build 0)  -->
<svg version="1.1" id="Layer_1" xmlns="http://www.w3.org/2000/svg" xmlns:xlink="http://www.w3.org/1999/xlink" x="0px" y="0px"
	 viewBox="0 0 337.2 260.9" style="enable-background:new 0 0 337.2 260.9;" xml:space="preserve">
<title>stacked-logo-whitemobile</title>
<path d="M260.1,144c-19.6-0.5-38.4-7.4-52.3-21.3l-5.5-5.5c22.9-9.1,38.1-31.1,38.4-55.8c0.4-33.8-28-61.4-61.8-61.4H90.8
	c-0.6,0-1.1,0.5-1.1,1.1l0,0v18.8c0,0.6,0.5,1.1,1.1,1.1l0,0h11.5c0.6,0,1.1,0.5,1.1,1.1l0,0v30.7c0,0.6,0.5,1.1,1.1,1.2l0,0h18.8
	c0.6,0,1.1-0.5,1.1-1.1V22.1c0-0.6,0.5-1.1,1.1-1.1h53.8c22,0,40.6,18,40.5,40c-0.2,19.8-14.9,36.5-34.5,39.2l-11.6-11.6h2.6
	c15.1,0,27.9-11.8,28.3-26.9c0.4-15.3-11.6-28.1-27-28.6c-0.3,0-0.5,0-0.8,0H140c-0.6,0-1.1,0.5-1.1,1.1V53c0,0.6,0.5,1.1,1.1,1.1
	h36.7c3.5,0,6.4,2.5,6.9,5.9c0.5,3.7-2.1,7.1-5.8,7.6c-0.3,0-0.6,0.1-0.9,0.1H91.3c-0.6,0-1.1-0.5-1.1-1.1l0,0V34.1
	c0-0.6-0.5-1.1-1.1-1.1l0,0H59.5c-0.6,0-1.1,0.5-1.1,1.1v18.8c0,0.6,0.5,1.1,1.1,1.1H68c0.6,0,1.1,0.5,1.1,1.1l0,0v46.3
	c0,0.6-0.5,1.1-1.1,1.1l0,0h-8.5c-0.6,0-1.1,0.5-1.1,1.1l0,0v18.8c0,0.6,0.5,1.1,1.1,1.1l0,0h20.2c5.8,0,10.5-4.7,10.5-10.5l0,0
	V89.6c0-0.6,0.5-1.1,1.1-1.1l0,0H144l12,12h-51.4c-0.6,0-1.1,0.5-1.1,1.1l0,0v40.1c0,0.6-0.5,1.1-1.1,1.1H91.6
	c-0.6,0-1.1,0.5-1.1,1.1l0,0v18.8c0,0.6,0.5,1.1,1.1,1.1h21.2v-0.1c1.7,0.2,3.3-0.1,4.9-0.7c4.1-1.8,6.8-5.9,6.7-10.4v-31.2h52.5
	l15.6,15.6c17.7,17.8,41.8,27.8,66.9,27.9c5.6,0.1,10.4-4.2,10.9-9.8c0.4-5.8-4-10.8-9.8-11.2C260.4,144,260.3,144,260.1,144z"/>
<path d="M9.6,205.8c1.3,0,2.6,0.1,3.8,0.4c1,0.3,2,0.7,2.8,1.4c0.8,0.6,1.4,1.4,1.8,2.3c0.4,1,0.7,2.1,0.6,3.3c0.1,1.4-0.3,2.8-1,4
	c-0.7,1.1-1.7,1.9-2.8,2.4l4,7.6c0.1,0.1,0.1,0.2,0.1,0.4c0,0.4-0.3,0.7-0.7,0.7h-4.4c-0.3,0-0.7-0.1-0.9-0.3s-0.3-0.4-0.4-0.6
	l-3.6-6.9H6v6.9c0,0.5-0.4,0.9-0.9,0.9H0.9c-0.2,0-0.5-0.1-0.6-0.3c-0.2-0.2-0.3-0.4-0.3-0.6v-20.7c0-0.2,0.1-0.5,0.3-0.6
	c0.2-0.2,0.4-0.3,0.6-0.3L9.6,205.8z M6,215.5h3.6c0.8,0,1.5-0.1,2.2-0.5c1-0.8,1.2-2.4,0.3-3.4c-0.1-0.1-0.2-0.2-0.3-0.3
	c-0.7-0.4-1.5-0.6-2.2-0.5H6V215.5z"/>
<path d="M28.5,208.9c0,0.5-0.4,0.9-0.9,0.9h-4c-0.5,0-0.9-0.4-0.9-0.9v-3.3c0-0.2,0.1-0.4,0.3-0.6c0.2-0.2,0.4-0.3,0.6-0.3h4.1
	c0.2,0,0.5,0.1,0.6,0.3c0.2,0.2,0.3,0.4,0.3,0.6L28.5,208.9z M28.5,227.4c0,0.2-0.1,0.5-0.3,0.6c-0.2,0.2-0.4,0.3-0.6,0.3h-4
	c-0.2,0-0.5-0.1-0.6-0.3c-0.2-0.2-0.3-0.4-0.3-0.6v-15c0-0.2,0.1-0.5,0.3-0.6c0.2-0.2,0.4-0.3,0.6-0.3h4c0.2,0,0.5,0.1,0.6,0.3
	c0.2,0.2,0.3,0.4,0.3,0.6V227.4z"/>
<path d="M38.2,218.8c-0.1,0.4-0.1,0.7-0.1,1.1c0,0.4,0,0.8,0.1,1.1c0,0.7,0.3,1.4,0.9,1.9c0.6,0.5,1.3,0.7,2,0.7
	c0.6,0,1.1-0.1,1.6-0.3c0.4-0.2,0.7-0.5,0.9-0.9c0.1-0.2,0.2-0.3,0.4-0.5c0.2-0.1,0.4-0.2,0.6-0.2h4.2c0.2,0,0.5,0.1,0.6,0.3
	c0.2,0.2,0.3,0.4,0.2,0.6c-0.1,0.5-0.2,1-0.4,1.5c-0.3,0.8-0.8,1.4-1.3,2c-0.8,0.7-1.6,1.3-2.6,1.7c-1.3,0.5-2.8,0.8-4.2,0.7
	c-1.1,0-2.3-0.2-3.4-0.5c-1-0.3-1.9-0.8-2.7-1.5c-0.8-0.6-1.4-1.4-1.9-2.3c-0.5-1-0.7-2-0.8-3.1c0-0.3,0-0.8,0-1.3s0-1,0-1.3
	c0-1.1,0.3-2.1,0.8-3.1c0.4-0.9,1.1-1.7,1.9-2.3c0.8-0.7,1.7-1.2,2.7-1.5c1.1-0.4,2.2-0.5,3.4-0.5c1.4-0.1,2.9,0.2,4.2,0.7
	c1,0.4,1.8,1,2.6,1.7c0.6,0.6,1,1.2,1.3,2c0.2,0.5,0.4,1,0.4,1.5c0,0.2-0.1,0.5-0.2,0.6c-0.2,0.2-0.4,0.3-0.6,0.3h-4.2
	c-0.2,0-0.4-0.1-0.6-0.2c-0.1-0.1-0.3-0.3-0.4-0.4c-0.2-0.4-0.5-0.6-0.9-0.9c-0.5-0.2-1.1-0.3-1.6-0.3c-0.7,0-1.5,0.2-2,0.7
	C38.5,217.4,38.2,218.1,38.2,218.8z"/>
<path d="M70.3,227.4c0,0.5-0.4,0.9-0.9,0.9h-4c-0.2,0-0.5-0.1-0.6-0.3c-0.2-0.2-0.3-0.4-0.3-0.6v-8.1c0-0.8-0.2-1.6-0.7-2.2
	c-0.5-0.6-1.3-0.9-2.1-0.8c-0.8-0.1-1.6,0.2-2.1,0.8s-0.7,1.4-0.7,2.2v8.1c0,0.2-0.1,0.4-0.3,0.6c-0.2,0.2-0.4,0.3-0.6,0.3h-4.1
	c-0.2,0-0.4-0.1-0.6-0.3c-0.2-0.2-0.3-0.4-0.3-0.6v-21.1c0-0.5,0.4-0.9,0.9-0.9h4c0.2,0,0.5,0.1,0.6,0.3c0.2,0.2,0.3,0.4,0.3,0.6
	v6.8c0.5-0.5,1.1-1,1.7-1.3c0.8-0.4,1.7-0.6,2.7-0.6c1,0,1.9,0.1,2.8,0.4c0.8,0.3,1.6,0.7,2.2,1.3s1.1,1.4,1.4,2.3
	c0.4,1.1,0.5,2.2,0.5,3.3v8.9H70.3z"/>
<path d="M73.6,223.5c0-1.4,0.6-2.6,1.6-3.5c1.6-1.1,3.4-1.8,5.3-2l3.8-0.6c0-0.5-0.1-0.9-0.4-1.3c-0.4-0.4-0.9-0.6-1.4-0.5
	c-0.4,0-0.8,0.1-1.1,0.2c-0.2,0.1-0.4,0.2-0.6,0.4c-0.2,0.1-0.3,0.3-0.6,0.3c-0.2,0.1-0.4,0.1-0.6,0.1h-4.1c-0.2,0-0.4-0.1-0.5-0.2
	c-0.1-0.1-0.2-0.3-0.2-0.5c0.1-0.6,0.3-1.1,0.6-1.5c0.4-0.6,1-1.1,1.6-1.5c0.7-0.5,1.6-0.9,2.4-1.1c1-0.3,2-0.5,3-0.4
	c1.2,0,2.3,0.1,3.4,0.5c0.9,0.3,1.7,0.7,2.4,1.3c0.6,0.5,1.1,1.2,1.4,2s0.5,1.7,0.4,2.6v9.7c0,0.2-0.1,0.5-0.3,0.6
	c-0.2,0.2-0.4,0.3-0.6,0.3h-4c-0.5,0-0.9-0.4-0.9-0.9v-0.9c-0.5,0.6-1.2,1.2-1.9,1.5c-0.9,0.4-2,0.6-3,0.6c-0.8,0-1.7-0.1-2.5-0.4
	c-0.7-0.2-1.3-0.6-1.8-1.1c-0.5-0.4-0.9-1-1.1-1.6C73.7,224.9,73.6,224.2,73.6,223.5z M81,224.3c0.5,0,0.9-0.1,1.3-0.2
	c0.4-0.2,0.8-0.4,1.1-0.7c0.3-0.3,0.5-0.6,0.7-1s0.3-0.8,0.3-1.2l-3,0.4c-0.5,0.1-1,0.3-1.4,0.6c-0.3,0.2-0.5,0.6-0.5,1
	c0,0.3,0.1,0.7,0.4,0.9C80.1,224.2,80.6,224.3,81,224.3L81,224.3z"/>
<path d="M106.1,211.6c0.2,0,0.5,0.1,0.6,0.3c0.2,0.2,0.3,0.4,0.3,0.6v3.3c0,0.2-0.1,0.5-0.3,0.6c-0.2,0.2-0.4,0.3-0.6,0.3h-2.9
	c-1.4-0.2-2.8,0.7-3,2.2c0,0.3,0,0.5,0,0.8v7.9c0,0.2-0.1,0.4-0.3,0.6c-0.2,0.2-0.4,0.3-0.6,0.3h-4c-0.2,0-0.5-0.1-0.6-0.3
	c-0.2-0.2-0.3-0.4-0.3-0.6v-15c0-0.2,0.1-0.5,0.3-0.6c0.2-0.2,0.4-0.3,0.6-0.3H99c0.2,0,0.5,0.1,0.6,0.3c0.2,0.2,0.3,0.4,0.3,0.6
	v0.7c1.2-1.1,2.7-1.7,4.3-1.6L106.1,211.6z"/>
<path d="M116.4,211.3c0.6,0,1.1,0.1,1.6,0.2c0.4,0.1,0.8,0.3,1.2,0.5c0.3,0.2,0.6,0.4,0.9,0.6c0.2,0.2,0.4,0.4,0.6,0.6v-6.8
	c0-0.5,0.4-0.9,0.9-0.9h4c0.5,0,0.9,0.4,0.9,0.9v21.1c0,0.2-0.1,0.4-0.3,0.6c-0.2,0.2-0.4,0.3-0.6,0.3h-3.9c-0.2,0-0.5-0.1-0.6-0.3
	c-0.2-0.2-0.3-0.4-0.3-0.6v-0.7c-0.2,0.2-0.4,0.5-0.6,0.7s-0.5,0.5-0.8,0.6c-0.4,0.2-0.8,0.4-1.2,0.4c-0.6,0.1-1.2,0.2-1.8,0.2
	c-0.9,0-1.9-0.1-2.7-0.4c-0.8-0.3-1.6-0.7-2.3-1.4c-0.7-0.7-1.2-1.4-1.6-2.3c-0.4-1-0.6-2.2-0.7-3.3c0-0.3,0-0.8,0-1.3s0-1,0-1.3
	c0-1.1,0.2-2.2,0.7-3.3c0.4-0.9,0.9-1.6,1.6-2.3c0.6-0.6,1.4-1.1,2.3-1.4C114.5,211.4,115.5,211.2,116.4,211.3z M115,219
	c-0.1,0.6-0.1,1.2,0,1.8c0,0.7,0.3,1.4,0.7,2c0.5,0.6,1.3,0.9,2.2,0.8c0.4,0,0.8-0.1,1.2-0.2c0.3-0.1,0.6-0.3,0.8-0.6
	c0.2-0.2,0.4-0.5,0.5-0.8s0.2-0.6,0.3-0.9c0-0.4,0.1-0.8,0.1-1.1c0-0.4,0-0.7-0.1-1.1c0-0.3-0.1-0.6-0.3-0.9
	c-0.1-0.3-0.3-0.6-0.5-0.8c-0.2-0.3-0.5-0.5-0.8-0.6c-0.4-0.2-0.8-0.2-1.2-0.2c-0.8-0.1-1.6,0.2-2.2,0.8
	C115.3,217.6,115.1,218.3,115,219z"/>
<path d="M140.5,223.3c0-0.2-0.1-0.4-0.2-0.5c-0.2-0.2-0.5-0.3-0.8-0.3c-0.5-0.1-1-0.2-1.5-0.3c-0.6-0.1-1.4-0.2-2.4-0.4
	c-1.4-0.2-2.7-0.8-3.8-1.8c-0.9-0.9-1.4-2.2-1.3-3.5c0-0.7,0.2-1.4,0.6-2c0.4-0.6,0.9-1.2,1.5-1.6c0.7-0.5,1.5-0.9,2.4-1.1
	c1-0.3,2-0.4,3.1-0.4c1,0,2.1,0.1,3.1,0.4c0.9,0.2,1.7,0.6,2.4,1c0.6,0.4,1.2,0.9,1.6,1.4c0.4,0.5,0.6,1,0.6,1.6
	c0,0.2-0.1,0.5-0.2,0.6c-0.2,0.2-0.4,0.3-0.6,0.3h-3.8c-0.2,0-0.4,0-0.6-0.2c-0.2-0.1-0.3-0.2-0.5-0.4s-0.5-0.3-0.8-0.4
	c-0.4-0.1-0.9-0.2-1.3-0.2c-0.4,0-0.8,0.1-1.2,0.2c-0.3,0.1-0.5,0.4-0.5,0.7c0,0.2,0,0.4,0.2,0.6c0.2,0.2,0.4,0.3,0.6,0.3
	c0.4,0.1,0.9,0.2,1.4,0.2l2.3,0.4c1.6,0.2,3.1,0.9,4.3,2c0.9,0.9,1.3,2.2,1.3,3.4c0,0.7-0.2,1.4-0.6,2c-0.4,0.7-1,1.2-1.6,1.7
	c-0.8,0.5-1.7,0.9-2.6,1.1c-1.1,0.3-2.3,0.4-3.4,0.4c-1.1,0-2.3-0.1-3.4-0.4c-0.9-0.2-1.7-0.6-2.5-1.1c-0.6-0.4-1.1-0.9-1.5-1.5
	c-0.3-0.5-0.5-1-0.6-1.6c0-0.2,0.1-0.5,0.2-0.6c0.2-0.2,0.4-0.3,0.6-0.3h4c0.2,0,0.4,0,0.5,0.2c0.1,0.1,0.3,0.3,0.4,0.4
	c0.2,0.2,0.5,0.3,0.7,0.4c0.5,0.1,1,0.2,1.4,0.2c0.6,0,1.1-0.1,1.7-0.3C140.3,223.8,140.5,223.6,140.5,223.3z"/>
<path d="M172.9,217.5c0-0.3,0.2-0.6,0.4-0.7c0.2-0.2,0.5-0.2,0.8-0.2h3.8c0.2,0,0.5,0.1,0.6,0.3c0.2,0.2,0.3,0.4,0.3,0.6
	c0,0.4-0.1,0.9-0.1,1.3c-0.1,0.5-0.3,1.1-0.5,1.6c-0.2,0.6-0.5,1.2-0.8,1.8c-0.4,0.6-0.8,1.2-1.2,1.8l3.4,3.5
	c0.1,0.1,0.2,0.3,0.2,0.4c0,0.1-0.1,0.3-0.2,0.4c-0.1,0.1-0.3,0.2-0.4,0.2h-5.8c-0.2,0-0.4,0-0.5-0.1s-0.2-0.1-0.3-0.2l-0.7-0.7
	c-0.9,0.4-1.9,0.8-2.9,1c-1.1,0.2-2.3,0.4-3.4,0.4c-1,0-2-0.1-2.9-0.3c-1-0.2-1.9-0.5-2.7-1.1c-0.8-0.5-1.5-1.2-2-2
	c-0.5-0.9-0.8-2-0.8-3.1c0-1.2,0.3-2.3,1-3.3c0.8-1,1.7-1.9,2.8-2.5c-0.4-0.4-0.7-0.8-1-1.3c-0.3-0.4-0.5-0.8-0.7-1.2
	s-0.3-0.8-0.4-1.2c-0.1-0.4-0.1-0.9-0.1-1.3c0-0.8,0.2-1.6,0.6-2.4c0.4-0.7,0.9-1.4,1.6-1.9c0.7-0.5,1.5-0.9,2.4-1.2
	s1.9-0.4,2.9-0.4s1.9,0.1,2.9,0.4c0.9,0.3,1.7,0.7,2.4,1.2s1.2,1.1,1.6,1.9c0.4,0.7,0.6,1.5,0.6,2.3c0,0.5-0.1,0.9-0.2,1.4
	c-0.1,0.5-0.3,1-0.6,1.5c-0.3,0.6-0.7,1.1-1.2,1.6c-0.6,0.6-1.2,1.2-1.9,1.6l2.3,2.3c0.2-0.4,0.4-0.8,0.5-1.2
	C172.7,218.2,172.8,217.8,172.9,217.5z M165.6,224.3c0.5,0,0.9-0.1,1.4-0.2c0.5-0.1,0.9-0.3,1.3-0.5l-3.4-3.5
	c-0.5,0.3-0.9,0.6-1.3,1c-0.7,0.7-0.7,1.8,0,2.5c0,0.1,0.1,0.1,0.2,0.1C164.2,224.2,164.9,224.4,165.6,224.3L165.6,224.3z
	 M164.7,211.3c0,0.4,0.1,0.8,0.4,1.1c0.3,0.4,0.6,0.8,0.9,1.1c1.3-0.8,1.9-1.5,1.9-2.3c0-0.5-0.1-0.9-0.5-1.2
	c-0.3-0.2-0.7-0.4-1.1-0.4c-0.4,0-0.8,0.1-1.1,0.4C164.8,210.4,164.7,210.9,164.7,211.3L164.7,211.3z"/>
<path d="M200.5,205.8c1.3,0,2.6,0.1,3.8,0.4c1,0.3,2,0.7,2.9,1.4c0.8,0.6,1.4,1.4,1.8,2.3c0.4,1,0.6,2.1,0.6,3.3
	c0.1,1.4-0.3,2.8-1,4c-0.7,1.1-1.7,1.9-2.8,2.4l4,7.6c0.2,0.3,0.1,0.6-0.1,0.9c-0.1,0.1-0.3,0.2-0.5,0.2h-4.4
	c-0.3,0-0.7-0.1-0.9-0.3s-0.3-0.4-0.4-0.6l-3.6-6.9h-3v6.9c0,0.2-0.1,0.5-0.3,0.6c-0.2,0.2-0.4,0.3-0.6,0.3h-4.2
	c-0.5,0-0.9-0.4-0.9-0.9v-20.8c0-0.2,0.1-0.5,0.3-0.6c0.2-0.2,0.4-0.3,0.6-0.3L200.5,205.8z M196.9,215.5h3.6c0.8,0,1.5-0.1,2.2-0.5
	c1-0.8,1.2-2.3,0.4-3.4c-0.1-0.1-0.2-0.3-0.4-0.4c-0.7-0.4-1.5-0.6-2.2-0.5h-3.6V215.5z"/>
<path d="M219.5,208.9c0,0.2-0.1,0.5-0.3,0.6c-0.2,0.2-0.4,0.3-0.6,0.3h-4.1c-0.2,0-0.5-0.1-0.6-0.3c-0.2-0.2-0.3-0.4-0.3-0.6v-3.3
	c0-0.2,0.1-0.4,0.3-0.6c0.2-0.2,0.4-0.3,0.6-0.3h4.1c0.5,0,0.9,0.4,0.9,0.9L219.5,208.9L219.5,208.9z M219.5,227.4
	c0,0.2-0.1,0.5-0.3,0.6c-0.2,0.2-0.4,0.3-0.6,0.3h-4.1c-0.2,0-0.5-0.1-0.6-0.3c-0.2-0.2-0.3-0.4-0.3-0.6v-15c0-0.5,0.4-0.9,0.8-0.9
	l0,0h4.1c0.2,0,0.5,0.1,0.6,0.3c0.2,0.2,0.3,0.4,0.3,0.6v15H219.5z"/>
<path d="M229.1,218.8c0,0.4-0.1,0.7-0.1,1.1c0,0.4,0,0.8,0.1,1.1c0,0.7,0.4,1.4,0.9,1.9c0.6,0.5,1.3,0.7,2.1,0.7
	c0.6,0,1.1-0.1,1.6-0.3c0.4-0.2,0.7-0.5,0.9-0.9c0.1-0.2,0.2-0.3,0.4-0.4c0.2-0.1,0.4-0.2,0.6-0.2h4.2c0.2,0,0.5,0.1,0.6,0.3
	c0.2,0.2,0.3,0.4,0.3,0.6c-0.1,0.5-0.2,1-0.4,1.5c-0.3,0.8-0.8,1.4-1.4,2c-0.8,0.7-1.6,1.3-2.6,1.7c-2.4,0.9-5.1,1-7.5,0.2
	c-1-0.3-1.9-0.8-2.7-1.5c-1.6-1.3-2.6-3.3-2.6-5.4c0-0.3,0-0.8,0-1.3s0-1,0-1.3c0-1.1,0.3-2.1,0.8-3.1c0.5-0.9,1.1-1.7,1.9-2.3
	c0.8-0.7,1.7-1.2,2.7-1.5c1.1-0.4,2.2-0.5,3.4-0.5c1.4,0,2.9,0.2,4.2,0.7c1,0.4,1.8,1,2.6,1.7c0.6,0.6,1,1.2,1.4,2
	c0.2,0.5,0.3,1,0.4,1.5c0,0.2-0.1,0.5-0.3,0.6c-0.2,0.2-0.4,0.3-0.6,0.3h-4.2c-0.2,0-0.4-0.1-0.6-0.2c-0.1-0.1-0.3-0.3-0.4-0.4
	c-0.2-0.4-0.5-0.6-0.9-0.9c-0.5-0.2-1.1-0.3-1.6-0.3c-0.8,0-1.5,0.2-2.1,0.7C229.5,217.5,229.2,218.1,229.1,218.8z"/>
<path d="M261.3,227.4c0,0.2-0.1,0.5-0.3,0.6c-0.2,0.2-0.4,0.3-0.6,0.3h-4c-0.2,0-0.4-0.1-0.6-0.3c-0.2-0.2-0.3-0.4-0.3-0.6v-8.1
	c0-0.8-0.2-1.6-0.7-2.2c-0.5-0.6-1.3-0.9-2.1-0.8c-0.8-0.1-1.6,0.2-2.1,0.8s-0.7,1.4-0.7,2.2v8.1c0,0.5-0.4,0.9-0.9,0.9h-4
	c-0.2,0-0.5-0.1-0.6-0.3c-0.2-0.2-0.3-0.4-0.3-0.6v-21.1c0-0.2,0.1-0.5,0.3-0.6c0.2-0.2,0.4-0.3,0.6-0.3h4.1c0.2,0,0.5,0.1,0.6,0.3
	c0.2,0.2,0.3,0.4,0.3,0.6v6.8c0.5-0.5,1.1-1,1.7-1.3c0.8-0.4,1.7-0.6,2.7-0.6s1.9,0.1,2.8,0.4c0.8,0.3,1.6,0.7,2.2,1.3
	s1.1,1.4,1.4,2.3c0.4,1.1,0.5,2.2,0.5,3.3L261.3,227.4z"/>
<path d="M264.5,223.5c0-1.4,0.6-2.6,1.6-3.5c1.6-1.1,3.4-1.8,5.3-2l3.8-0.6c0-0.5-0.1-0.9-0.4-1.3c-0.4-0.4-0.9-0.6-1.4-0.5
	c-0.4,0-0.8,0.1-1.1,0.2c-0.2,0.1-0.4,0.2-0.6,0.4s-0.3,0.3-0.5,0.3c-0.2,0.1-0.4,0.1-0.6,0.1h-4.1c-0.2,0-0.4-0.1-0.5-0.2
	c-0.1-0.1-0.2-0.3-0.2-0.5c0.1-0.6,0.3-1.1,0.6-1.5c0.4-0.6,1-1.1,1.6-1.5c0.7-0.5,1.6-0.9,2.4-1.1c1-0.3,2-0.5,3-0.4
	c1.2,0,2.3,0.1,3.4,0.5c0.9,0.3,1.7,0.7,2.4,1.3c0.6,0.5,1.1,1.2,1.4,2s0.5,1.7,0.5,2.6v9.7c0,0.2-0.1,0.4-0.3,0.6
	c-0.2,0.2-0.4,0.3-0.6,0.3h-4c-0.2,0-0.5-0.1-0.6-0.3c-0.2-0.2-0.3-0.4-0.3-0.6v-0.9c-0.5,0.6-1.2,1.2-1.9,1.5c-0.9,0.4-2,0.6-3,0.6
	c-0.8,0-1.7-0.1-2.5-0.4c-0.7-0.2-1.3-0.6-1.8-1.1c-0.5-0.4-0.9-1-1.1-1.6C264.7,224.9,264.5,224.2,264.5,223.5z M271.9,224.3
	c0.4,0,0.9-0.1,1.3-0.2c0.4-0.1,0.8-0.4,1.1-0.7c0.3-0.3,0.5-0.6,0.7-1s0.3-0.8,0.3-1.2l-3,0.4c-0.5,0.1-1,0.3-1.4,0.6
	c-0.3,0.2-0.5,0.6-0.5,1c0,0.3,0.1,0.7,0.4,0.9C271.1,224.2,271.5,224.3,271.9,224.3L271.9,224.3z"/>
<path d="M297,211.6c0.2,0,0.5,0.1,0.6,0.3c0.2,0.2,0.3,0.4,0.3,0.6v3.3c0,0.5-0.4,0.9-0.9,0.9h-2.9c-2,0-3,1-3,2.9v7.9
	c0,0.2-0.1,0.5-0.3,0.6c-0.2,0.2-0.4,0.3-0.6,0.3h-4c-0.5,0-0.9-0.4-0.9-0.9v-15c0-0.2,0.1-0.5,0.3-0.6c0.2-0.2,0.4-0.3,0.6-0.3h3.8
	c0.2,0,0.5,0.1,0.6,0.3c0.2,0.2,0.3,0.4,0.3,0.6v0.7c0.5-0.5,1.1-0.9,1.8-1.2c0.8-0.3,1.6-0.5,2.5-0.4L297,211.6z"/>
<path d="M307.4,211.3c0.5,0,1.1,0.1,1.6,0.2c0.4,0.1,0.8,0.3,1.2,0.5c0.3,0.2,0.6,0.4,0.9,0.6c0.2,0.2,0.4,0.4,0.6,0.6v-6.8
	c0-0.2,0.1-0.5,0.3-0.6c0.2-0.2,0.4-0.3,0.6-0.3h4c0.2,0,0.5,0.1,0.6,0.3c0.2,0.2,0.3,0.4,0.3,0.6v21.1c0,0.5-0.4,0.9-0.9,0.9h-3.9
	c-0.2,0-0.5-0.1-0.6-0.3c-0.2-0.2-0.3-0.4-0.3-0.6v-0.7c-0.2,0.2-0.4,0.5-0.6,0.7s-0.5,0.4-0.8,0.6c-0.4,0.2-0.8,0.4-1.2,0.4
	c-0.6,0.1-1.2,0.2-1.8,0.2c-0.9,0-1.9-0.1-2.7-0.4c-0.8-0.3-1.6-0.7-2.3-1.4c-0.7-0.6-1.2-1.4-1.5-2.3c-0.4-1-0.6-2.2-0.7-3.3
	c0-0.3,0-0.8,0-1.3s0-1,0-1.3c0-1.1,0.2-2.2,0.7-3.3c0.4-0.9,0.9-1.6,1.5-2.3c0.6-0.6,1.4-1.1,2.3-1.4
	C305.5,211.4,306.4,211.2,307.4,211.3z M305.9,219c-0.1,0.6-0.1,1.2,0,1.8c0,0.7,0.3,1.4,0.7,2c0.5,0.6,1.3,0.9,2.1,0.8
	c0.4,0,0.8-0.1,1.2-0.2c0.3-0.1,0.6-0.3,0.9-0.6c0.2-0.2,0.4-0.5,0.5-0.8s0.2-0.6,0.3-0.9c0-0.4,0.1-0.8,0.1-1.1
	c0-0.4,0-0.7-0.1-1.1c0-0.3-0.1-0.6-0.3-0.9c-0.1-0.3-0.3-0.6-0.5-0.8c-0.2-0.3-0.5-0.5-0.9-0.6c-0.4-0.2-0.8-0.2-1.2-0.2
	c-0.8-0.1-1.6,0.2-2.1,0.8C306.2,217.6,306,218.3,305.9,219z"/>
<path d="M331.4,223.3c0-0.2-0.1-0.4-0.3-0.5c-0.2-0.2-0.5-0.3-0.8-0.3c-0.4-0.1-0.9-0.2-1.5-0.3s-1.4-0.2-2.4-0.4
	c-1.4-0.2-2.7-0.8-3.8-1.8c-0.9-0.9-1.4-2.2-1.3-3.5c0-0.7,0.2-1.4,0.5-2c0.4-0.6,0.9-1.2,1.5-1.6c0.7-0.5,1.5-0.9,2.4-1.1
	c1-0.3,2-0.4,3.1-0.4c1,0,2.1,0.1,3.1,0.4c0.9,0.2,1.7,0.6,2.5,1c0.6,0.4,1.2,0.9,1.6,1.4s0.6,1,0.7,1.6c0,0.2-0.1,0.5-0.2,0.6
	c-0.2,0.2-0.4,0.3-0.6,0.3H332c-0.2,0-0.4,0-0.6-0.2c-0.2-0.1-0.3-0.2-0.5-0.4c-0.2-0.1-0.5-0.3-0.8-0.4c-0.4-0.1-0.9-0.2-1.3-0.2
	s-0.8,0.1-1.2,0.2c-0.3,0.1-0.5,0.4-0.5,0.7c0,0.2,0,0.4,0.2,0.6c0.2,0.2,0.4,0.3,0.6,0.3c0.4,0.1,0.9,0.2,1.4,0.2l2.3,0.4
	c1.6,0.2,3.1,0.9,4.3,2c0.9,0.9,1.3,2.2,1.3,3.4c0,0.7-0.2,1.4-0.5,2c-0.4,0.7-0.9,1.2-1.6,1.7c-0.8,0.5-1.7,0.9-2.6,1.1
	c-1.1,0.3-2.3,0.4-3.4,0.4s-2.3-0.1-3.4-0.4c-0.9-0.2-1.7-0.6-2.5-1.1c-0.6-0.4-1.1-0.9-1.5-1.5c-0.3-0.5-0.5-1-0.6-1.6
	c0-0.2,0.1-0.5,0.2-0.6c0.2-0.2,0.4-0.3,0.6-0.3h4c0.2,0,0.4,0,0.5,0.2c0.1,0.1,0.3,0.3,0.4,0.4c0.2,0.2,0.5,0.3,0.7,0.4
	c0.5,0.1,1,0.2,1.5,0.2c0.6,0,1.1-0.1,1.7-0.3C331.2,223.8,331.4,223.6,331.4,223.3z"/>
<path d="M126,257.6c0.2,0,0.3,0.1,0.5,0.2c0.1,0.1,0.2,0.3,0.2,0.5v1.7c0,0.2-0.1,0.3-0.2,0.5c-0.1,0.1-0.3,0.2-0.5,0.2h-10.7
	c-0.2,0-0.3-0.1-0.5-0.2c-0.1-0.1-0.2-0.3-0.2-0.5v-15.7c0-0.2,0.1-0.3,0.2-0.5c0.1-0.1,0.3-0.2,0.5-0.2h2c0.2,0,0.3,0.1,0.5,0.2
	c0.1,0.1,0.2,0.3,0.2,0.5v13.3L126,257.6L126,257.6z"/>
<path d="M129.9,251.2c0.1-0.4,0.2-0.8,0.4-1.1c0.3-0.4,0.6-0.8,1-1.1c0.5-0.4,1-0.6,1.6-0.8c0.7-0.2,1.4-0.3,2.2-0.3
	s1.5,0.1,2.2,0.3c0.6,0.2,1.2,0.6,1.7,1s0.9,1,1.1,1.6c0.3,0.7,0.4,1.4,0.4,2.2v7.1c0,0.4-0.3,0.6-0.6,0.6H138
	c-0.2,0-0.3-0.1-0.5-0.2c-0.1-0.1-0.2-0.3-0.2-0.5v-0.8c-0.4,0.5-0.9,0.9-1.5,1.2c-0.8,0.4-1.6,0.5-2.4,0.5c-0.6,0-1.3-0.1-1.9-0.3
	c-0.5-0.2-1-0.4-1.4-0.8c-0.4-0.3-0.7-0.7-0.9-1.2s-0.3-1-0.3-1.5c0-1,0.4-2,1.2-2.6c0.9-0.7,2-1.1,3.2-1.3l4-0.7
	c0.1-0.6-0.2-1.1-0.6-1.4c-0.5-0.3-1.1-0.4-1.6-0.4c-0.3,0-0.6,0-0.9,0.2c-0.2,0.1-0.5,0.3-0.7,0.5c-0.1,0.1-0.3,0.2-0.4,0.3
	c-0.1,0.1-0.3,0.1-0.4,0.1h-2.3c-0.2,0-0.3-0.1-0.4-0.1C129.9,251.4,129.8,251.3,129.9,251.2z M133.9,258c0.5,0,1-0.1,1.5-0.2
	c0.4-0.1,0.8-0.3,1.1-0.6c0.3-0.2,0.5-0.5,0.6-0.9c0.1-0.3,0.2-0.7,0.2-1V255l-3.3,0.6c-0.5,0.1-1,0.2-1.4,0.5
	c-0.3,0.2-0.5,0.5-0.4,0.9c0,0.3,0.2,0.6,0.5,0.8C133.1,257.9,133.5,258,133.9,258L133.9,258z"/>
<path d="M155.6,255.6l2.2-7c0.1-0.1,0.1-0.3,0.2-0.4c0.1-0.1,0.3-0.2,0.5-0.2h1.9c0.2,0,0.3,0.1,0.5,0.2c0.1,0.1,0.2,0.3,0.2,0.5
	c0,0.1,0,0.1,0,0.2l-3.7,11.2c-0.1,0.1-0.1,0.3-0.2,0.4c-0.1,0.1-0.3,0.2-0.5,0.2h-1.9c-0.2,0-0.4,0-0.5-0.2
	c-0.1-0.1-0.2-0.3-0.2-0.4l-2.4-6.5l-2.4,6.5c-0.1,0.1-0.1,0.3-0.2,0.4c-0.1,0.1-0.3,0.2-0.5,0.2h-1.9c-0.2,0-0.4-0.1-0.5-0.2
	s-0.2-0.3-0.2-0.4l-3.7-11.2c0-0.1,0-0.1,0-0.2c0-0.4,0.3-0.7,0.6-0.7l0,0h1.8c0.2,0,0.4,0,0.5,0.2c0.1,0.1,0.2,0.3,0.2,0.4l2.2,7
	l2.3-7c0-0.1,0.1-0.3,0.2-0.4c0.1-0.1,0.3-0.2,0.4-0.2h1.9c0.2,0,0.3,0.1,0.4,0.2c0.1,0.1,0.2,0.2,0.2,0.4L155.6,255.6z"/>
<path d="M180.9,243.7c0.4,0,0.6,0.3,0.7,0.7v1.7c0,0.2-0.1,0.3-0.2,0.5c-0.1,0.1-0.3,0.2-0.5,0.2h-7.8v4.7h7.3
	c0.4,0,0.7,0.3,0.7,0.6l0,0v1.7c0,0.2-0.1,0.3-0.2,0.5c-0.1,0.1-0.3,0.2-0.5,0.2h-7.3v5.5c0,0.2-0.1,0.3-0.2,0.5
	c-0.1,0.1-0.3,0.2-0.5,0.2h-2c-0.2,0-0.3-0.1-0.5-0.2c-0.1-0.1-0.2-0.3-0.2-0.5v-15.7c0-0.2,0.1-0.3,0.2-0.5
	c0.1-0.1,0.3-0.2,0.5-0.2L180.9,243.7L180.9,243.7z"/>
<path d="M187.4,243.4c0.4,0,0.7,0.3,0.7,0.6l0,0v1.9c0,0.2-0.1,0.3-0.2,0.5c-0.1,0.1-0.3,0.2-0.5,0.2h-2.1c-0.2,0-0.3-0.1-0.5-0.2
	c-0.1-0.1-0.2-0.3-0.2-0.5V244c0-0.2,0.1-0.3,0.2-0.5c0.1-0.1,0.3-0.2,0.5-0.2L187.4,243.4z M187.9,260c0,0.2-0.1,0.3-0.2,0.5
	c-0.1,0.1-0.3,0.2-0.5,0.2h-1.9c-0.2,0-0.3-0.1-0.5-0.2c-0.1-0.1-0.2-0.3-0.2-0.5v-11.3c0-0.4,0.3-0.6,0.6-0.6h1.9
	c0.2,0,0.3,0.1,0.5,0.2c0.1,0.1,0.2,0.3,0.2,0.5L187.9,260z"/>
<path d="M197.8,251c-1.3-0.2-2.5,0.6-2.8,1.9c-0.1,0.3-0.1,0.6,0,0.9v6.3c0,0.4-0.3,0.6-0.6,0.6h-1.9c-0.2,0-0.3-0.1-0.5-0.2
	c-0.1-0.1-0.2-0.3-0.2-0.5v-11.3c0-0.2,0.1-0.3,0.2-0.5c0.1-0.1,0.3-0.2,0.5-0.2h1.9c0.2,0,0.3,0.1,0.5,0.2c0.1,0.1,0.2,0.3,0.2,0.5
	v0.6c0.4-0.4,0.9-0.7,1.4-0.9c0.6-0.2,1.2-0.3,1.9-0.3h1.1c0.2,0,0.3,0.1,0.5,0.2c0.1,0.1,0.2,0.3,0.2,0.5v1.6
	c0,0.4-0.3,0.6-0.7,0.7L197.8,251z"/>
<path d="M205.8,249.3c0.4-0.5,0.9-0.8,1.4-1.1c0.5-0.2,1.1-0.4,1.7-0.4c0.9,0,1.7,0.2,2.5,0.6c0.6,0.4,1.2,0.9,1.5,1.5
	c0.2-0.3,0.5-0.6,0.8-0.9c0.3-0.3,0.6-0.5,1-0.7c0.3-0.2,0.7-0.3,1.1-0.4c0.4-0.1,0.7-0.1,1.1-0.1c0.8,0,1.6,0.1,2.3,0.5
	c0.6,0.3,1.1,0.7,1.5,1.2s0.7,1.2,0.8,1.8c0.2,0.7,0.2,1.4,0.2,2.2v6.5c0,0.2-0.1,0.3-0.2,0.5c-0.1,0.1-0.3,0.2-0.5,0.2h-1.8
	c-0.2,0-0.3-0.1-0.5-0.2c-0.1-0.1-0.2-0.3-0.2-0.5v-6.4c0.1-0.8-0.1-1.6-0.6-2.3c-1-0.9-2.5-0.9-3.4,0c-0.5,0.6-0.8,1.4-0.8,2.2v6.5
	c0,0.4-0.3,0.6-0.6,0.6h-1.9c-0.2,0-0.3-0.1-0.5-0.2c-0.1-0.1-0.2-0.3-0.2-0.5v-6.4c0.1-0.8-0.1-1.6-0.6-2.3
	c-0.5-0.5-1.1-0.7-1.8-0.7c-0.6,0-1.3,0.2-1.7,0.7c-0.5,0.6-0.8,1.5-0.7,2.3v6.4c0,0.2-0.1,0.3-0.2,0.5c-0.1,0.1-0.3,0.2-0.5,0.2
	h-1.9c-0.4,0-0.6-0.3-0.6-0.6v-11.3c0-0.2,0.1-0.3,0.2-0.5c0.1-0.1,0.3-0.2,0.5-0.2h1.9c0.2,0,0.3,0.1,0.5,0.2
	c0.1,0.1,0.2,0.3,0.2,0.5V249.3z"/>
</svg>
