<svg id="Layer_1" data-name="Layer 1" xmlns="http://www.w3.org/2000/svg" viewBox="0 0 337.21 260.94"><defs><style>.cls-1{fill:#fff;}</style></defs><title>stacked-logo-whitemobile</title><path class="cls-1" d="M260.13,144c-19.57-.46-38.41-7.42-52.25-21.26l-5.5-5.5a60.83,60.83,0,0,0,38.44-55.8C241.2,27.65,212.84,0,179.05,0H90.85a1.12,1.12,0,0,0-1.12,1.12V19.88A1.12,1.12,0,0,0,90.85,21H102.3a1.12,1.12,0,0,1,1.12,1.12V52.83A1.13,1.13,0,0,0,104.54,54H123.3a1.13,1.13,0,0,0,1.12-1.13V22.12A1.12,1.12,0,0,1,125.54,21h53.79c22,0,40.63,18,40.49,40a39.8,39.8,0,0,1-34.54,39.15L173.66,88.52h2.63c15.1,0,27.89-11.82,28.34-26.92A27.8,27.8,0,0,0,176.88,33H140a1.12,1.12,0,0,0-1.12,1.12V52.88A1.12,1.12,0,0,0,140,54h36.66a6.92,6.92,0,0,1,6.94,5.87,6.77,6.77,0,0,1-6.7,7.65H91.26a1.12,1.12,0,0,1-1.12-1.12l0-32.28A1.12,1.12,0,0,0,89,33H59.48a1.12,1.12,0,0,0-1.12,1.12V52.88A1.12,1.12,0,0,0,59.48,54H68a1.12,1.12,0,0,1,1.12,1.12v46.26A1.12,1.12,0,0,1,68,102.5H59.48a1.12,1.12,0,0,0-1.12,1.12v18.76a1.12,1.12,0,0,0,1.12,1.12H79.64A10.5,10.5,0,0,0,90.14,113V89.64a1.12,1.12,0,0,1,1.12-1.12H144l12,12-51.4,0a1.12,1.12,0,0,0-1.12,1.12v40.09a1.13,1.13,0,0,1-1.12,1.13H91.6A1.12,1.12,0,0,0,90.48,144v18.75a1.13,1.13,0,0,0,1.12,1.13h21.22v-.06a9.72,9.72,0,0,0,4.88-.71,11.21,11.21,0,0,0,6.72-10.41V121.5h52.52l15.61,15.62A94.62,94.62,0,0,0,259.42,165a10.75,10.75,0,0,0,10.93-9.78A10.51,10.51,0,0,0,260.13,144Z"/><path class="cls-1" d="M9.58,205.79a14.65,14.65,0,0,1,3.79.45,8.05,8.05,0,0,1,2.84,1.35,5.84,5.84,0,0,1,1.8,2.3,7.87,7.87,0,0,1,.63,3.26,7.35,7.35,0,0,1-1,4,6.32,6.32,0,0,1-2.83,2.43l4,7.65a.81.81,0,0,1,.1.35.72.72,0,0,1-.71.71H13.82a1.24,1.24,0,0,1-.92-.29,3.46,3.46,0,0,1-.43-.58L8.9,220.54H6v6.88a.89.89,0,0,1-.87.87H.87A.83.83,0,0,1,.26,228a.81.81,0,0,1-.26-.61V206.66a.8.8,0,0,1,.26-.61.83.83,0,0,1,.61-.26ZM6,215.53H9.58a4.31,4.31,0,0,0,2.23-.52,2.41,2.41,0,0,0,0-3.72,4.31,4.31,0,0,0-2.23-.52H6Z"/><path class="cls-1" d="M28.54,208.94a.89.89,0,0,1-.87.87H23.62a.89.89,0,0,1-.87-.87v-3.25a.87.87,0,0,1,.26-.61.82.82,0,0,1,.61-.25h4.05a.82.82,0,0,1,.61.25.87.87,0,0,1,.26.61Zm0,18.48a.85.85,0,0,1-.26.61.83.83,0,0,1-.61.26H23.62A.83.83,0,0,1,23,228a.85.85,0,0,1-.26-.61v-15a.85.85,0,0,1,.26-.61.82.82,0,0,1,.61-.25h4.05a.82.82,0,0,1,.61.25.85.85,0,0,1,.26.61Z"/><path class="cls-1" d="M38.18,218.81a7.37,7.37,0,0,0-.07,1.12,7.6,7.6,0,0,0,.07,1.13,2.68,2.68,0,0,0,.87,1.86,2.92,2.92,0,0,0,2.05.71,3.55,3.55,0,0,0,1.63-.31,2.47,2.47,0,0,0,.91-.85A2.34,2.34,0,0,1,44,222a.79.79,0,0,1,.56-.19h4.21a.88.88,0,0,1,.63.25.74.74,0,0,1,.24.61,5.52,5.52,0,0,1-.42,1.52,5.7,5.7,0,0,1-1.35,2,8.33,8.33,0,0,1-2.6,1.71,10.46,10.46,0,0,1-4.18.72,10.47,10.47,0,0,1-3.36-.52A8.34,8.34,0,0,1,35,226.62a7.26,7.26,0,0,1-1.86-2.33,7.47,7.47,0,0,1-.76-3.07c0-.33,0-.75,0-1.29s0-1,0-1.29a7.43,7.43,0,0,1,.76-3.06A7.16,7.16,0,0,1,35,213.25a8.18,8.18,0,0,1,2.73-1.48,10.75,10.75,0,0,1,3.36-.52,10.27,10.27,0,0,1,4.18.73,8.31,8.31,0,0,1,2.6,1.7,5.64,5.64,0,0,1,1.35,2,5.39,5.39,0,0,1,.42,1.51.73.73,0,0,1-.24.61.88.88,0,0,1-.63.25H44.57a.79.79,0,0,1-.56-.19,2.34,2.34,0,0,1-.37-.45,2.47,2.47,0,0,0-.91-.85,3.55,3.55,0,0,0-1.63-.31,2.92,2.92,0,0,0-2.05.71A2.69,2.69,0,0,0,38.18,218.81Z"/><path class="cls-1" d="M70.35,227.42a.89.89,0,0,1-.87.87h-4a.83.83,0,0,1-.61-.26.85.85,0,0,1-.26-.61v-8.13a3.44,3.44,0,0,0-.67-2.22,2.56,2.56,0,0,0-2.12-.84,2.52,2.52,0,0,0-2.11.84,3.49,3.49,0,0,0-.66,2.22v8.13a.84.84,0,0,1-.25.61.87.87,0,0,1-.62.26H54.08a.87.87,0,0,1-.61-.26.84.84,0,0,1-.25-.61V206.34a.87.87,0,0,1,.86-.87h4.05a.83.83,0,0,1,.62.26.82.82,0,0,1,.25.61v6.84a5.64,5.64,0,0,1,1.71-1.3,5.48,5.48,0,0,1,2.66-.63,8.79,8.79,0,0,1,2.83.44A5.66,5.66,0,0,1,68.4,213a6.12,6.12,0,0,1,1.43,2.28,9.48,9.48,0,0,1,.52,3.28Z"/><path class="cls-1" d="M73.62,223.53a4.41,4.41,0,0,1,1.63-3.5,11.23,11.23,0,0,1,5.28-2l3.76-.64a2,2,0,0,0-.41-1.27,1.81,1.81,0,0,0-1.45-.5,2.52,2.52,0,0,0-1.14.21,2.92,2.92,0,0,0-.59.37,1.39,1.39,0,0,1-.55.32,2.22,2.22,0,0,1-.61.07H75.46a.74.74,0,0,1-.53-.2.58.58,0,0,1-.18-.51,3.14,3.14,0,0,1,.64-1.54A6.16,6.16,0,0,1,77,212.83a9.79,9.79,0,0,1,2.41-1.13,9.93,9.93,0,0,1,3-.45,10.58,10.58,0,0,1,3.41.49,6.64,6.64,0,0,1,2.39,1.33,5.22,5.22,0,0,1,1.4,2,7.23,7.23,0,0,1,.45,2.59v9.74a.85.85,0,0,1-.26.61.83.83,0,0,1-.61.26h-4a.89.89,0,0,1-.87-.87v-.9a5.62,5.62,0,0,1-1.91,1.53,6.89,6.89,0,0,1-3,.56,7.22,7.22,0,0,1-2.46-.39,5,5,0,0,1-1.8-1.06A4.55,4.55,0,0,1,74,225.55,5.16,5.16,0,0,1,73.62,223.53Zm7.33.74a3.6,3.6,0,0,0,1.32-.24,3.28,3.28,0,0,0,1.06-.66,3.12,3.12,0,0,0,.71-1,2.91,2.91,0,0,0,.25-1.21l-3,.45a3.39,3.39,0,0,0-1.4.55,1.2,1.2,0,0,0-.53,1,.91.91,0,0,0,.4.85A2.25,2.25,0,0,0,81,224.27Z"/><path class="cls-1" d="M106.11,211.58a.86.86,0,0,1,.62.25.84.84,0,0,1,.25.61v3.25a.82.82,0,0,1-.25.61.87.87,0,0,1-.62.26h-2.92a2.61,2.61,0,0,0-3,2.95v7.91a.84.84,0,0,1-.25.61.87.87,0,0,1-.61.26H95.32a.83.83,0,0,1-.61-.26.81.81,0,0,1-.26-.61v-15a.81.81,0,0,1,.26-.61.82.82,0,0,1,.61-.25H99a.86.86,0,0,1,.62.25.84.84,0,0,1,.25.61v.74a5.87,5.87,0,0,1,4.28-1.6Z"/><path class="cls-1" d="M116.43,211.25a6.19,6.19,0,0,1,1.64.2,5.54,5.54,0,0,1,1.22.48,4.62,4.62,0,0,1,.87.62,6.22,6.22,0,0,1,.58.63v-6.84a.89.89,0,0,1,.87-.87h4a.87.87,0,0,1,.86.87v21.08a.84.84,0,0,1-.25.61.87.87,0,0,1-.61.26h-3.89a.83.83,0,0,1-.61-.26.81.81,0,0,1-.26-.61v-.74a6.77,6.77,0,0,1-.63.69,3.37,3.37,0,0,1-.83.61,5.3,5.3,0,0,1-1.23.45,7.45,7.45,0,0,1-1.78.18,8.49,8.49,0,0,1-2.73-.44,5.87,5.87,0,0,1-2.25-1.35,6.93,6.93,0,0,1-1.56-2.29,9.36,9.36,0,0,1-.66-3.28c0-.32,0-.76,0-1.3s0-1,0-1.31a9.3,9.3,0,0,1,.66-3.27,7,7,0,0,1,1.56-2.3,6.17,6.17,0,0,1,2.25-1.37A8.23,8.23,0,0,1,116.43,211.25ZM115,219a7.74,7.74,0,0,0,0,1.8,3.69,3.69,0,0,0,.73,2,2.56,2.56,0,0,0,2.16.84,3,3,0,0,0,1.22-.23,2.53,2.53,0,0,0,.85-.59,2.88,2.88,0,0,0,.53-.82,3.39,3.39,0,0,0,.26-.93,9.4,9.4,0,0,0,.06-1.13,9.11,9.11,0,0,0-.06-1.12,3.36,3.36,0,0,0-.26-.94,2.88,2.88,0,0,0-.53-.82,2.53,2.53,0,0,0-.85-.59,3,3,0,0,0-1.22-.23,2.56,2.56,0,0,0-2.16.84A3.69,3.69,0,0,0,115,219Z"/><path class="cls-1" d="M140.5,223.27a.64.64,0,0,0-.24-.54,2,2,0,0,0-.82-.32,15,15,0,0,0-1.52-.26c-.64-.09-1.42-.22-2.37-.39a6.82,6.82,0,0,1-3.76-1.8,4.82,4.82,0,0,1-1.32-3.53,4,4,0,0,1,.55-2,5.5,5.5,0,0,1,1.53-1.64,7.47,7.47,0,0,1,2.36-1.1,11,11,0,0,1,3.09-.41,11.14,11.14,0,0,1,3.08.41,9.79,9.79,0,0,1,2.44,1,5.52,5.52,0,0,1,1.63,1.45,3.25,3.25,0,0,1,.65,1.62.66.66,0,0,1-.24.61.85.85,0,0,1-.62.26h-3.83a.89.89,0,0,1-.56-.16,4.72,4.72,0,0,0-.5-.35,3.28,3.28,0,0,0-.75-.36,4.4,4.4,0,0,0-1.3-.16,3.18,3.18,0,0,0-1.24.21.72.72,0,0,0-.5.69.82.82,0,0,0,.16.55,1.15,1.15,0,0,0,.64.3,13.51,13.51,0,0,0,1.35.24l2.28.36a7.09,7.09,0,0,1,4.26,2,5,5,0,0,1,1.34,3.43,4.05,4.05,0,0,1-.55,2,5.09,5.09,0,0,1-1.61,1.67,8.57,8.57,0,0,1-2.57,1.14,12.86,12.86,0,0,1-3.44.42,12,12,0,0,1-3.39-.44,8.75,8.75,0,0,1-2.46-1.11,5.35,5.35,0,0,1-1.52-1.47,3.41,3.41,0,0,1-.6-1.58.73.73,0,0,1,.24-.61.93.93,0,0,1,.63-.26h4a.66.66,0,0,1,.51.18,4.17,4.17,0,0,0,.42.39,2.66,2.66,0,0,0,.74.38,4.34,4.34,0,0,0,1.44.18,4.88,4.88,0,0,0,1.67-.26C140.27,223.84,140.5,223.59,140.5,223.27Z"/><path class="cls-1" d="M172.9,217.46a1,1,0,0,1,.45-.71,1.39,1.39,0,0,1,.77-.23h3.82a.83.83,0,0,1,.61.26.82.82,0,0,1,.26.58,6.85,6.85,0,0,1-.15,1.33,9.45,9.45,0,0,1-.46,1.61,12.06,12.06,0,0,1-.84,1.75,13,13,0,0,1-1.22,1.77l3.44,3.47a.61.61,0,0,1,.19.45.53.53,0,0,1-.16.39.59.59,0,0,1-.42.16h-5.81a1.11,1.11,0,0,1-.52-.1,2,2,0,0,1-.29-.22l-.7-.71a12.86,12.86,0,0,1-2.88,1,15.21,15.21,0,0,1-3.42.36,14,14,0,0,1-2.93-.31,7.88,7.88,0,0,1-2.68-1.06,6,6,0,0,1-2-2,5.88,5.88,0,0,1-.75-3.1,5.4,5.4,0,0,1,1-3.31,10.3,10.3,0,0,1,2.81-2.54,12.24,12.24,0,0,1-1-1.29,7.48,7.48,0,0,1-.66-1.19,5,5,0,0,1-.37-1.18,7.83,7.83,0,0,1-.11-1.32,4.83,4.83,0,0,1,.58-2.36,5.68,5.68,0,0,1,1.57-1.85,7.46,7.46,0,0,1,2.35-1.21,9.25,9.25,0,0,1,2.86-.43,9,9,0,0,1,2.86.45,7.8,7.8,0,0,1,2.36,1.24,5.89,5.89,0,0,1,1.59,1.86,4.73,4.73,0,0,1,.58,2.3,5.82,5.82,0,0,1-.18,1.38,5.91,5.91,0,0,1-.61,1.51,8.31,8.31,0,0,1-1.19,1.59,11,11,0,0,1-1.91,1.62l2.25,2.29a10.93,10.93,0,0,0,.53-1.19A8.53,8.53,0,0,0,172.9,217.46Zm-7.33,6.84a5.45,5.45,0,0,0,1.41-.18,6.58,6.58,0,0,0,1.32-.49l-3.44-3.47a5.41,5.41,0,0,0-1.33,1,1.76,1.76,0,0,0,.13,2.63A3,3,0,0,0,165.57,224.3Zm-.87-13a2,2,0,0,0,.39,1.12,7.68,7.68,0,0,0,.9,1.13q1.92-1.15,1.92-2.25a1.33,1.33,0,0,0-.51-1.19,1.86,1.86,0,0,0-1.09-.35,1.74,1.74,0,0,0-1.13.38A1.4,1.4,0,0,0,164.7,211.32Z"/><path class="cls-1" d="M200.5,205.79a14.54,14.54,0,0,1,3.79.45,8,8,0,0,1,2.85,1.35,5.93,5.93,0,0,1,1.8,2.3,7.87,7.87,0,0,1,.62,3.26,7.44,7.44,0,0,1-1,4,6.42,6.42,0,0,1-2.83,2.43l4,7.65a.68.68,0,0,1-.11.85.67.67,0,0,1-.5.21h-4.37a1.21,1.21,0,0,1-.91-.29,3.55,3.55,0,0,1-.44-.58l-3.56-6.88h-3v6.88a.85.85,0,0,1-.26.61.83.83,0,0,1-.61.26h-4.21a.89.89,0,0,1-.87-.87V206.66a.83.83,0,0,1,.26-.61.85.85,0,0,1,.61-.26Zm-3.63,9.74h3.63a4.28,4.28,0,0,0,2.23-.52,2.39,2.39,0,0,0,0-3.72,4.28,4.28,0,0,0-2.23-.52h-3.63Z"/><path class="cls-1" d="M219.46,208.94a.8.8,0,0,1-.26.61.83.83,0,0,1-.61.26h-4.05a.85.85,0,0,1-.61-.26.82.82,0,0,1-.25-.61v-3.25a.85.85,0,0,1,.25-.61.84.84,0,0,1,.61-.25h4.05a.87.87,0,0,1,.87.86Zm0,18.48a.81.81,0,0,1-.26.61.83.83,0,0,1-.61.26h-4.05a.85.85,0,0,1-.61-.26.84.84,0,0,1-.25-.61v-15a.85.85,0,0,1,.86-.86h4.05a.82.82,0,0,1,.61.25.81.81,0,0,1,.26.61Z"/><path class="cls-1" d="M229.1,218.81a9.11,9.11,0,0,0-.06,1.12,9.4,9.4,0,0,0,.06,1.13,2.77,2.77,0,0,0,.87,1.86,2.93,2.93,0,0,0,2.06.71,3.5,3.5,0,0,0,1.62-.31,2.58,2.58,0,0,0,.92-.85,2,2,0,0,1,.37-.45.76.76,0,0,1,.56-.19h4.21a.88.88,0,0,1,.62.25.72.72,0,0,1,.25.61,5.91,5.91,0,0,1-.42,1.52,6,6,0,0,1-1.35,2,8.33,8.33,0,0,1-2.6,1.71,11.84,11.84,0,0,1-7.54.2,8.34,8.34,0,0,1-2.73-1.47,7.1,7.1,0,0,1-2.62-5.4c0-.33,0-.75,0-1.29s0-1,0-1.29a7.27,7.27,0,0,1,.75-3.06,7.19,7.19,0,0,1,1.87-2.33,8.18,8.18,0,0,1,2.73-1.48,10.75,10.75,0,0,1,3.36-.52,10.31,10.31,0,0,1,4.18.73,8.31,8.31,0,0,1,2.6,1.7,5.92,5.92,0,0,1,1.35,2,5.76,5.76,0,0,1,.42,1.51.71.71,0,0,1-.25.61.88.88,0,0,1-.62.25H235.5a.76.76,0,0,1-.56-.19,2,2,0,0,1-.37-.45,2.58,2.58,0,0,0-.92-.85,3.5,3.5,0,0,0-1.62-.31,2.93,2.93,0,0,0-2.06.71A2.77,2.77,0,0,0,229.1,218.81Z"/><path class="cls-1" d="M261.27,227.42a.81.81,0,0,1-.26.61.83.83,0,0,1-.61.26h-4a.87.87,0,0,1-.61-.26.84.84,0,0,1-.25-.61v-8.13a3.44,3.44,0,0,0-.68-2.22,2.55,2.55,0,0,0-2.12-.84,2.49,2.49,0,0,0-2.1.84,3.49,3.49,0,0,0-.66,2.22v8.13a.89.89,0,0,1-.87.87H245a.83.83,0,0,1-.61-.26.85.85,0,0,1-.26-.61V206.34a.83.83,0,0,1,.26-.61.8.8,0,0,1,.61-.26h4.05a.81.81,0,0,1,.61.26.83.83,0,0,1,.26.61v6.84a5.58,5.58,0,0,1,1.7-1.3,5.49,5.49,0,0,1,2.67-.63,8.79,8.79,0,0,1,2.83.44,5.73,5.73,0,0,1,2.2,1.33,6.25,6.25,0,0,1,1.43,2.28,9.5,9.5,0,0,1,.51,3.28Z"/><path class="cls-1" d="M264.55,223.53a4.4,4.4,0,0,1,1.62-3.5,11.27,11.27,0,0,1,5.29-2l3.76-.64a1.91,1.91,0,0,0-.42-1.27,1.8,1.8,0,0,0-1.44-.5,2.54,2.54,0,0,0-1.15.21,3.64,3.64,0,0,0-.59.37,1.27,1.27,0,0,1-.55.32,2.18,2.18,0,0,1-.61.07h-4.08a.76.76,0,0,1-.53-.2.58.58,0,0,1-.18-.51,3.17,3.17,0,0,1,.65-1.54,5.85,5.85,0,0,1,1.59-1.48,9.62,9.62,0,0,1,2.41-1.13,9.84,9.84,0,0,1,3-.45,10.51,10.51,0,0,1,3.4.49,6.69,6.69,0,0,1,2.4,1.33,5.2,5.2,0,0,1,1.39,2,7.23,7.23,0,0,1,.45,2.59v9.74a.84.84,0,0,1-.25.61.85.85,0,0,1-.61.26h-4.05a.83.83,0,0,1-.61-.26.81.81,0,0,1-.26-.61v-.9a5.62,5.62,0,0,1-1.91,1.53,6.94,6.94,0,0,1-3,.56,7.22,7.22,0,0,1-2.46-.39,5.17,5.17,0,0,1-1.8-1.06,4.4,4.4,0,0,1-1.1-1.61A5.16,5.16,0,0,1,264.55,223.53Zm7.33.74a3.51,3.51,0,0,0,1.31-.24,3.17,3.17,0,0,0,1.06-.66,3.12,3.12,0,0,0,.71-1,2.92,2.92,0,0,0,.26-1.21l-3,.45a3.45,3.45,0,0,0-1.4.55,1.2,1.2,0,0,0-.53,1,.92.92,0,0,0,.41.85A2.2,2.2,0,0,0,271.88,224.27Z"/><path class="cls-1" d="M297,211.58a.82.82,0,0,1,.61.25.85.85,0,0,1,.26.61v3.25a.89.89,0,0,1-.87.87h-2.92c-2,0-3,1-3,2.95v7.91a.85.85,0,0,1-.26.61.83.83,0,0,1-.61.26h-4.05a.89.89,0,0,1-.87-.87v-15a.85.85,0,0,1,.26-.61.84.84,0,0,1,.61-.25H290a.82.82,0,0,1,.61.25.85.85,0,0,1,.26.61v.74a6.09,6.09,0,0,1,1.78-1.16,6.3,6.3,0,0,1,2.49-.44Z"/><path class="cls-1" d="M307.36,211.25a6.11,6.11,0,0,1,1.63.2,5.63,5.63,0,0,1,1.23.48,4.23,4.23,0,0,1,.86.62,6.22,6.22,0,0,1,.58.63v-6.84a.83.83,0,0,1,.26-.61.8.8,0,0,1,.61-.26h4.05a.81.81,0,0,1,.61.26.83.83,0,0,1,.26.61v21.08a.89.89,0,0,1-.87.87h-3.89a.83.83,0,0,1-.61-.26.85.85,0,0,1-.26-.61v-.74a8,8,0,0,1-.62.69,3.63,3.63,0,0,1-.84.61,5.2,5.2,0,0,1-1.22.45,7.51,7.51,0,0,1-1.78.18,8.51,8.51,0,0,1-2.74-.44,6,6,0,0,1-2.25-1.35,6.76,6.76,0,0,1-1.55-2.29,8.93,8.93,0,0,1-.66-3.28c0-.32,0-.76,0-1.3s0-1,0-1.31a8.88,8.88,0,0,1,.66-3.27,6.8,6.8,0,0,1,1.55-2.3,6.34,6.34,0,0,1,2.25-1.37A8.25,8.25,0,0,1,307.36,211.25ZM305.91,219a7.74,7.74,0,0,0,0,1.8,3.62,3.62,0,0,0,.74,2,2.54,2.54,0,0,0,2.15.84,3,3,0,0,0,1.22-.23,2.43,2.43,0,0,0,.85-.59,2.68,2.68,0,0,0,.53-.82,3.39,3.39,0,0,0,.26-.93,9.24,9.24,0,0,0,.07-1.13,8.94,8.94,0,0,0-.07-1.12,3.36,3.36,0,0,0-.26-.94,2.68,2.68,0,0,0-.53-.82,2.43,2.43,0,0,0-.85-.59,3,3,0,0,0-1.22-.23,2.54,2.54,0,0,0-2.15.84A3.62,3.62,0,0,0,305.91,219Z"/><path class="cls-1" d="M331.43,223.27a.63.63,0,0,0-.25-.54,2,2,0,0,0-.81-.32c-.39-.09-.9-.18-1.53-.26s-1.42-.22-2.36-.39a6.79,6.79,0,0,1-3.76-1.8,4.82,4.82,0,0,1-1.32-3.53,3.89,3.89,0,0,1,.55-2,5.47,5.47,0,0,1,1.52-1.64,7.47,7.47,0,0,1,2.36-1.1,11,11,0,0,1,3.09-.41,11.14,11.14,0,0,1,3.08.41,9.87,9.87,0,0,1,2.45,1,5.6,5.6,0,0,1,1.62,1.45,3.27,3.27,0,0,1,.66,1.62.72.72,0,0,1-.24.61.87.87,0,0,1-.63.26H332a.9.9,0,0,1-.57-.16,5.76,5.76,0,0,0-.49-.35,3.61,3.61,0,0,0-.76-.36,4.35,4.35,0,0,0-1.3-.16,3.21,3.21,0,0,0-1.24.21.72.72,0,0,0-.5.69.88.88,0,0,0,.16.55,1.19,1.19,0,0,0,.65.3,13.51,13.51,0,0,0,1.35.24l2.28.36a7.09,7.09,0,0,1,4.26,2,5,5,0,0,1,1.33,3.43,4,4,0,0,1-.55,2,5.16,5.16,0,0,1-1.6,1.67,8.81,8.81,0,0,1-2.57,1.14,12.91,12.91,0,0,1-3.44.42,11.87,11.87,0,0,1-3.39-.44,8.49,8.49,0,0,1-2.46-1.11,5.4,5.4,0,0,1-1.53-1.47,3.39,3.39,0,0,1-.59-1.58.73.73,0,0,1,.24-.61.89.89,0,0,1,.63-.26h4a.63.63,0,0,1,.51.18,4.17,4.17,0,0,0,.42.39,2.66,2.66,0,0,0,.74.38,4.37,4.37,0,0,0,1.45.18,4.92,4.92,0,0,0,1.67-.26C331.19,223.84,331.43,223.59,331.43,223.27Z"/><path class="cls-1" d="M126,257.65a.65.65,0,0,1,.46.2.62.62,0,0,1,.19.46V260a.62.62,0,0,1-.19.46.63.63,0,0,1-.46.19H115.33a.63.63,0,0,1-.46-.19.62.62,0,0,1-.19-.46V244.33a.62.62,0,0,1,.19-.46.65.65,0,0,1,.46-.2h2a.65.65,0,0,1,.47.2.62.62,0,0,1,.19.46v13.32Z"/><path class="cls-1" d="M129.85,251.16a3.61,3.61,0,0,1,.45-1.09,4.25,4.25,0,0,1,1-1.1,5.49,5.49,0,0,1,1.58-.84,6.53,6.53,0,0,1,2.18-.33,7.06,7.06,0,0,1,2.23.33,4.89,4.89,0,0,1,1.72,1,4.26,4.26,0,0,1,1.11,1.6,5.8,5.8,0,0,1,.38,2.2V260a.65.65,0,0,1-.65.65H138a.62.62,0,0,1-.46-.19.63.63,0,0,1-.2-.46v-.8a4.07,4.07,0,0,1-1.47,1.2,5.29,5.29,0,0,1-2.44.5,6,6,0,0,1-1.87-.28,3.83,3.83,0,0,1-1.39-.79,3.47,3.47,0,0,1-.86-1.21,3.59,3.59,0,0,1-.31-1.52,3.16,3.16,0,0,1,1.19-2.62,7,7,0,0,1,3.19-1.29l4-.68a1.53,1.53,0,0,0-.65-1.41,3,3,0,0,0-1.63-.42,2.21,2.21,0,0,0-.95.17,2.86,2.86,0,0,0-.66.47,1.35,1.35,0,0,1-.4.26,1,1,0,0,1-.4.08h-2.26a.64.64,0,0,1-.42-.15A.39.39,0,0,1,129.85,251.16Zm4.06,6.86a4.51,4.51,0,0,0,1.48-.23,3.33,3.33,0,0,0,1.08-.62,2.49,2.49,0,0,0,.65-.88,2.3,2.3,0,0,0,.22-1v-.25l-3.3.59a3.35,3.35,0,0,0-1.44.5,1,1,0,0,0-.44.88.82.82,0,0,0,.53.76A2.85,2.85,0,0,0,133.91,258Z"/><path class="cls-1" d="M155.58,255.59l2.19-7a1.86,1.86,0,0,1,.21-.39.53.53,0,0,1,.47-.19h1.85a.62.62,0,0,1,.46.19.65.65,0,0,1,.2.46.48.48,0,0,1,0,.18l-3.67,11.21a1.49,1.49,0,0,1-.22.41.55.55,0,0,1-.48.19h-1.85a.54.54,0,0,1-.48-.19,3.3,3.3,0,0,1-.23-.41l-2.36-6.5-2.36,6.5a2.38,2.38,0,0,1-.23.41.52.52,0,0,1-.47.19h-1.85a.57.57,0,0,1-.49-.19,1.45,1.45,0,0,1-.21-.41l-3.68-11.21a.9.9,0,0,1,0-.18.65.65,0,0,1,.66-.65h1.84a.54.54,0,0,1,.48.19,1.45,1.45,0,0,1,.2.39l2.19,7,2.34-7a.89.89,0,0,1,.23-.39.58.58,0,0,1,.45-.19h1.85a.58.58,0,0,1,.45.19.89.89,0,0,1,.23.39Z"/><path class="cls-1" d="M180.9,243.67a.68.68,0,0,1,.66.66v1.72a.65.65,0,0,1-.2.47.62.62,0,0,1-.46.19h-7.76v4.72h7.27a.65.65,0,0,1,.66.66v1.72a.62.62,0,0,1-.19.46.65.65,0,0,1-.47.2h-7.27V260a.62.62,0,0,1-.19.46.63.63,0,0,1-.46.19h-2a.64.64,0,0,1-.47-.19.62.62,0,0,1-.19-.46V244.33a.62.62,0,0,1,.19-.46.65.65,0,0,1,.47-.2Z"/><path class="cls-1" d="M187.39,243.43a.65.65,0,0,1,.66.65V246a.62.62,0,0,1-.19.46.65.65,0,0,1-.47.2H185.3a.63.63,0,0,1-.46-.2.62.62,0,0,1-.19-.46v-1.9a.63.63,0,0,1,.19-.46.62.62,0,0,1,.46-.19Zm.54,16.61a.63.63,0,0,1-.2.46.62.62,0,0,1-.46.19h-1.85a.63.63,0,0,1-.46-.19.62.62,0,0,1-.19-.46V248.7a.65.65,0,0,1,.65-.65h1.85a.62.62,0,0,1,.46.19.65.65,0,0,1,.2.46Z"/><path class="cls-1" d="M197.8,251a2.35,2.35,0,0,0-2.75,2.75V260a.65.65,0,0,1-.65.65h-1.85a.62.62,0,0,1-.46-.19.63.63,0,0,1-.2-.46V248.7a.65.65,0,0,1,.2-.46.62.62,0,0,1,.46-.19h1.85a.62.62,0,0,1,.46.19.63.63,0,0,1,.19.46v.56a5.3,5.3,0,0,1,1.35-.9,4.78,4.78,0,0,1,1.89-.31h1.09a.62.62,0,0,1,.46.19.65.65,0,0,1,.2.46v1.61a.68.68,0,0,1-.66.66Z"/><path class="cls-1" d="M205.83,249.26a3.92,3.92,0,0,1,1.41-1.08,4.14,4.14,0,0,1,1.72-.38,4.91,4.91,0,0,1,2.51.58,4.29,4.29,0,0,1,1.53,1.49,4,4,0,0,1,.78-.87,5.33,5.33,0,0,1,1-.66,4.52,4.52,0,0,1,1.08-.4,4.59,4.59,0,0,1,1.09-.14,5.08,5.08,0,0,1,2.31.47,4.07,4.07,0,0,1,1.5,1.24,4.73,4.73,0,0,1,.8,1.81,9.59,9.59,0,0,1,.23,2.18V260a.62.62,0,0,1-.19.46.64.64,0,0,1-.47.19h-1.84a.64.64,0,0,1-.47-.19.62.62,0,0,1-.19-.46v-6.42a3.29,3.29,0,0,0-.63-2.31,2.62,2.62,0,0,0-3.44,0,3,3,0,0,0-.75,2.22V260a.65.65,0,0,1-.65.65H211.3a.62.62,0,0,1-.46-.19.63.63,0,0,1-.2-.46v-6.42a3.29,3.29,0,0,0-.63-2.31,2.33,2.33,0,0,0-1.77-.66,2.38,2.38,0,0,0-1.71.67,3.07,3.07,0,0,0-.7,2.3V260a.63.63,0,0,1-.2.46.62.62,0,0,1-.46.19h-1.85a.65.65,0,0,1-.65-.65V248.7a.63.63,0,0,1,.19-.46.62.62,0,0,1,.46-.19h1.85a.62.62,0,0,1,.46.19.65.65,0,0,1,.2.46Z"/></svg>